# xmcd
#
# Track frame offsets: 
#        150
#        8317
#        23592
#        38327
#        58072
#        76405
#        91670
#
# Disc length: 1413 seconds
#
# Revision: 0
# Processed by: cddbd v1.4PL0 Copyright (c) Steve Scherf et al.
# Submitted via: ExactAudioCopy v0.95a4
#
DISCID=36058307
DTITLE=Test - Nocif
DYEAR=2002
DGENRE=Hip-Hop
TTITLE0=In'Testro
TTITLE1=2'S'Conde D'Avance
TTITLE2=Nocif
TTITLE3=11'Sang
TTITLE4=C'Qu'On Voeux
TTITLE5=Instrumental 2'S'conde
TTITLE6=Instrumental Nocif
EXTD=
EXTT0=
EXTT1=
EXTT2=
EXTT3=
EXTT4=
EXTT5=
EXTT6=
PLAYORDER=
